<svg xmlns="http://www.w3.org/2000/svg" width="133.619" height="181.524" viewBox="0 0 133.619 181.524">
  <g id="accessibility" transform="translate(-67.673 511.902)">
    <path id="Path_81" data-name="Path 81" d="M207.923-511.4a22.684,22.684,0,0,0-12.63,7.2,24,24,0,0,0-3.619,27.5,26.211,26.211,0,0,0,9.863,9.721,21.129,21.129,0,0,0,11.176,2.7,22.2,22.2,0,0,0,16.852-7.025,22.333,22.333,0,0,0,6.918-16.71,22.3,22.3,0,0,0-7.1-16.852,18.369,18.369,0,0,0-6.067-4.506A23.985,23.985,0,0,0,207.923-511.4Z" transform="translate(-78.224)" fill="#fff"/>
    <path id="Path_82" data-name="Path 82" d="M75.24-381.217a9.982,9.982,0,0,0-6.776,5.747A9.917,9.917,0,0,0,70.769-364.4c.816.745,8.16,5.073,16.5,9.686,10.537,5.854,15.611,8.834,16.923,10.04a14.373,14.373,0,0,1,4.4,12.488c-.177,1.171-3.619,18.484-7.628,38.494s-7.273,36.862-7.273,37.465a10.812,10.812,0,0,0,7.273,9.544,10.53,10.53,0,0,0,7.45-.532c3.264-1.561,3.867-2.661,12.95-22.706,4.648-10.253,8.692-19.052,9.012-19.584a5.2,5.2,0,0,1,4.116-2.413,5.2,5.2,0,0,1,4.116,2.413c.319.532,4.364,9.331,9.012,19.584,9.083,20.045,9.686,21.145,12.95,22.706a10.53,10.53,0,0,0,7.451.532,10.812,10.812,0,0,0,7.273-9.544c0-.6-3.335-17.846-7.415-38.352-4.08-20.471-7.521-37.891-7.663-38.672-.532-3.548,1.526-8.657,4.577-11.424,1.313-1.206,6.386-4.186,16.923-10.04,8.337-4.612,15.682-8.941,16.5-9.686a9.921,9.921,0,0,0-2.838-16.249c-3.3-1.419-3.725-1.348-28.347,5.677C154.57-371.39,143-368.268,141.3-367.984a48.68,48.68,0,0,1-13.624,0c-1.7-.284-13.2-3.37-25.545-6.883-12.347-3.548-23.1-6.493-23.877-6.6A9.908,9.908,0,0,0,75.24-381.217Z" transform="translate(0 -84.136)" fill="#fff"/>
  </g>
</svg>
