<svg xmlns="http://www.w3.org/2000/svg" width="158.129" height="169.591" viewBox="0 0 158.129 169.591">
  <g id="discipline" transform="translate(-22.096 506.9)">
    <path id="Path_83" data-name="Path 83" d="M275.492-505.6a8.254,8.254,0,0,0-.941,2.89c-.471,2.756-.4,2.655-4.907,4.5l-3.058,1.243L264.5-498.37a9.008,9.008,0,0,0-2.958-1.445c-.639,0-2.185,1.378-6.654,5.881-3.226,3.226-5.848,6.083-5.848,6.352a11.753,11.753,0,0,0,1.512,2.89l1.512,2.353-1.378,3.327c-.773,1.815-1.512,3.5-1.68,3.7a8.142,8.142,0,0,1-2.655.773,8,8,0,0,0-2.857.941c-.4.4-.5,1.916-.5,8.839,0,9.713-.269,9.007,3.764,9.746l2.218.4,1.546,3.7,1.546,3.73-1.512,2.353a14.734,14.734,0,0,0-1.512,2.722c0,.672,11.9,12.3,12.6,12.3a8.621,8.621,0,0,0,2.689-1.344,12.518,12.518,0,0,1,2.353-1.344,52.362,52.362,0,0,1,7.259,3.092,17.789,17.789,0,0,1,.6,2.554c.672,3.6.2,3.428,9.612,3.428,5.949,0,8.268-.1,8.671-.437a7.257,7.257,0,0,0,1.075-2.924,14.068,14.068,0,0,1,.773-2.756,60.016,60.016,0,0,1,7.125-2.957,10.649,10.649,0,0,1,2.353,1.344,7.835,7.835,0,0,0,2.756,1.344c.975,0,12.368-11.259,12.368-12.233a9.467,9.467,0,0,0-1.412-2.823l-1.412-2.151.571-1.647c.336-.907,1.042-2.621,1.546-3.8l.975-2.151,2.386-.437c3.8-.672,3.563,0,3.663-9.377.134-9.847.269-9.477-3.529-10.15l-2.621-.471-1.546-3.663-1.546-3.7,1.479-2.185a10.342,10.342,0,0,0,1.445-2.857c0-.706-11.628-12.6-12.3-12.6a15.692,15.692,0,0,0-2.756,1.512l-2.386,1.546-3.63-1.512-3.63-1.479-.538-2.554a11.385,11.385,0,0,0-.975-3.058C292.464-506.335,276.231-506.335,275.492-505.6Zm15.493,5.108a7.414,7.414,0,0,0,.874,2.722,84.873,84.873,0,0,0,10.351,4.436,15.17,15.17,0,0,0,2.353-1.378l2.017-1.378,4.47,4.436,4.5,4.47-1.344,1.949a8.9,8.9,0,0,0-1.311,2.554,68.351,68.351,0,0,0,4.235,10.217,7.366,7.366,0,0,0,2.823.941l2.353.437-.067,6.251-.1,6.251-2.453.571a15.219,15.219,0,0,0-2.621.739,92.435,92.435,0,0,0-4.167,10.351,8.607,8.607,0,0,0,1.311,2.621l1.344,1.949-4.436,4.4-4.436,4.436-2.016-1.344a9.775,9.775,0,0,0-2.521-1.344,57.3,57.3,0,0,0-5.445,2.05c-5.512,2.285-5.176,1.949-5.915,5.848l-.269,1.344-6.251.1-6.251.067-.37-1.916c-.639-3.26-.739-3.361-5.915-5.512a40.752,40.752,0,0,0-5.31-1.949,7.734,7.734,0,0,0-2.554,1.277l-1.949,1.344-4.47-4.5-4.436-4.47.975-1.445c1.983-2.924,1.983-2.521-.1-7.6-1.008-2.554-2.084-4.974-2.319-5.377-.37-.538-1.075-.807-2.857-1.143l-2.353-.4v-12.637l1.949-.37c3.193-.6,3.092-.5,5.377-5.982,1.143-2.789,2.084-5.209,2.084-5.377a12.325,12.325,0,0,0-1.344-2.218,12.986,12.986,0,0,1-1.344-2.151,61.8,61.8,0,0,1,4.335-4.571l4.369-4.335,2.117,1.378a18.234,18.234,0,0,0,2.42,1.412c.134,0,2.521-.941,5.31-2.084,5.478-2.252,5.344-2.117,5.982-5.411l.37-1.916h12.637Z" transform="translate(-146.157 0)" fill="#fbfbfb" stroke="#fbfbfb" stroke-width="1.5"/>
    <path id="Path_84" data-name="Path 84" d="M307.925-462.613a27.25,27.25,0,0,0-21.375,20.938,30.857,30.857,0,0,0,.5,13.141,27.259,27.259,0,0,0,17.107,17.812,26.993,26.993,0,0,0,34.852-19.157,32.789,32.789,0,0,0-.134-13.04,28.338,28.338,0,0,0-15.93-18.148A30.471,30.471,0,0,0,307.925-462.613Zm12.233,4.134c10.654,3.6,17.644,14.687,16,25.408a27.23,27.23,0,0,1-3.126,9.007,30.379,30.379,0,0,1-8.335,8.234,23.581,23.581,0,0,1-32.936-10.015,21.137,21.137,0,0,1-2.353-10.284,23.461,23.461,0,0,1,17.88-22.854A26.138,26.138,0,0,1,320.158-458.479Z" transform="translate(-174.759 -28.665)" fill="#fbfbfb" stroke="#fbfbfb" stroke-width="1.5"/>
    <path id="Path_85" data-name="Path 85" d="M361.612-451.561c-.773.437-.807,2.722-.067,3.462.706.706,1.344.672,2.151-.134a2.168,2.168,0,0,0,.134-2.958A1.474,1.474,0,0,0,361.612-451.561Z" transform="translate(-224.513 -36.02)" fill="#fbfbfb" stroke="#fbfbfb" stroke-width="1.5"/>
    <path id="Path_86" data-name="Path 86" d="M316.457-432.5a2.247,2.247,0,0,0,.706,2.991c.739.571,1.075.6,1.714.336,1.21-.571,1.344-1.613.336-2.789C318.306-433.035,317.1-433.271,316.457-432.5Z" transform="translate(-194.718 -48.597)" fill="#fbfbfb" stroke="#fbfbfb" stroke-width="1.5"/>
    <path id="Path_87" data-name="Path 87" d="M404.8-432.19c-.975,1.042-.941,2.117.067,2.756.941.639,1.848.336,2.689-.907.672-.941.672-1.445,0-2.084A1.839,1.839,0,0,0,404.8-432.19Z" transform="translate(-253.112 -48.603)" fill="#fbfbfb" stroke="#fbfbfb" stroke-width="1.5"/>
    <path id="Path_88" data-name="Path 88" d="M361.706-427.064c-.672.5-.706.739-.706,7.965v7.461l4.974,4.974c5.041,5.008,5.982,5.613,7.058,4.537.941-.941.336-1.848-4.134-6.318l-4.537-4.537v-6.554c0-6.755-.1-7.394-1.378-7.831A1.752,1.752,0,0,0,361.706-427.064Z" transform="translate(-224.506 -52.284)" fill="#fbfbfb" stroke="#fbfbfb" stroke-width="1.5"/>
    <path id="Path_89" data-name="Path 89" d="M297.595-387.458a1.441,1.441,0,0,0,.067,2.252,2.315,2.315,0,0,0,3.092-.1c.807-.807.807-.975.134-1.949A2.464,2.464,0,0,0,297.595-387.458Z" transform="translate(-182.072 -78.446)" fill="#fbfbfb" stroke="#fbfbfb" stroke-width="1.5"/>
    <path id="Path_90" data-name="Path 90" d="M422.345-387.6c-1.042,1.042-.067,2.958,1.479,2.958,1.378,0,2.151-.6,2.151-1.613,0-1.277-.571-1.748-2.016-1.748A2.748,2.748,0,0,0,422.345-387.6Z" transform="translate(-264.947 -78.442)" fill="#fbfbfb" stroke="#fbfbfb" stroke-width="1.5"/>
    <path id="Path_91" data-name="Path 91" d="M316.876-344.294c-1.243.975-1.143,2.655.2,3.126.773.269,1.075.2,1.781-.471,1.311-1.243,1.008-3.361-.538-3.361A3.5,3.5,0,0,0,316.876-344.294Z" transform="translate(-194.632 -106.99)" fill="#fbfbfb" stroke="#fbfbfb" stroke-width="1.5"/>
    <path id="Path_92" data-name="Path 92" d="M404.587-344.4c-.773.739-.672,1.714.3,2.655.975,1.008,1.882,1.075,2.621.235.773-.874.706-1.378-.336-2.487C406.166-345.069,405.36-345.169,404.587-344.4Z" transform="translate(-253.104 -107.056)" fill="#fbfbfb" stroke="#fbfbfb" stroke-width="1.5"/>
    <path id="Path_93" data-name="Path 93" d="M361.4-326.583a3.119,3.119,0,0,0-.4,1.68c0,2.386,2.655,2.958,3.226.706C364.7-326.011,362.613-327.792,361.4-326.583Z" transform="translate(-224.506 -118.955)" fill="#fbfbfb" stroke="#fbfbfb" stroke-width="1.5"/>
    <path id="Path_94" data-name="Path 94" d="M111.465-402.318c-.907.874-.6,1.68,1.075,3.126l1.58,1.344-20.165.034c-15.258,0-20.3.1-20.6.4-.571.571-.571,38.616,0,39.187a1.917,1.917,0,0,0,2.621-.235c.2-.437.336-6.789.336-18.316v-17.678H95.232c16.535.034,18.821.067,18.249.5-1.647,1.243-2.554,2.252-2.554,2.823a2.149,2.149,0,0,0,1.714,1.714c.773,0,7.965-5.613,8.2-6.419.3-.907-.2-1.412-4.268-4.5C113.112-402.922,112.373-403.225,111.465-402.318Z" transform="translate(-33.248 -68.628)" fill="#fbfbfb" stroke="#fbfbfb" stroke-width="1.5"/>
    <path id="Path_95" data-name="Path 95" d="M171.242-280.4A25.441,25.441,0,0,0,150.4-261.413a29.88,29.88,0,0,0,0,11.46,25.781,25.781,0,0,0,18.653,18.686,32.962,32.962,0,0,0,11.763-.134,29.938,29.938,0,0,0,9.578-4.84,25.107,25.107,0,0,0,6.554-30.684,25.794,25.794,0,0,0-16.132-12.939A32.584,32.584,0,0,0,171.242-280.4Zm9.242,3.932a22.034,22.034,0,0,1,15.292,16.031,22.718,22.718,0,0,1-1.882,14.72,10.1,10.1,0,0,1-1.277,1.983,7.3,7.3,0,0,1-1.512-1.68,22.225,22.225,0,0,0-7.528-5.781l-2.084-1.008,1.008-1.143a9.983,9.983,0,0,0,2.621-6.386,9.194,9.194,0,0,0-2.521-7.528,10.356,10.356,0,0,0-17.275,2.185,10.055,10.055,0,0,0,1.512,11.494l1.21,1.344-2.857,1.412a23.6,23.6,0,0,0-7.7,6.419l-.571.84-.639-.84c-1.143-1.445-2.655-5.881-2.958-8.637a21.621,21.621,0,0,1,18.014-23.963A26.329,26.329,0,0,1,180.484-276.47Zm-2.857,9.511a8.786,8.786,0,0,1,2.42,1.815c3.6,4.1,1.613,10.217-3.764,11.7-4.739,1.311-9.713-3.529-8.6-8.4A7.265,7.265,0,0,1,177.627-266.959Zm1.344,17.678a17.025,17.025,0,0,1,7.764,4.268c2.722,2.588,3.73,4.1,3.126,4.84a27.2,27.2,0,0,1-6.453,4.3,25.876,25.876,0,0,1-8.873,1.882,23.114,23.114,0,0,1-13.712-5.142c-1.647-1.479-1.68-1.512-1.176-2.453.807-1.546,4.4-4.94,6.386-6.016A18.74,18.74,0,0,1,178.971-249.281Z" transform="translate(-84.32 -149.777)" fill="#fbfbfb" stroke="#fbfbfb" stroke-width="1.5"/>
    <path id="Path_96" data-name="Path 96" d="M23.436-237.261c-.739,1.075-.807,20.6-.067,21.644.37.5,1.916.941,6.923,1.983l6.486,1.344,2.521,6.15,2.521,6.15-3.562,5.31c-2.117,3.126-3.6,5.646-3.6,6.117,0,.639,1.983,2.789,8.167,8.973,4.5,4.47,8.436,8.133,8.738,8.133a41.272,41.272,0,0,0,5.848-3.6,56.442,56.442,0,0,1,5.713-3.562c1.008,0,12.2,4.907,12.334,5.445.1.3.639,3.025,1.243,6.083a37.217,37.217,0,0,0,1.546,6.285l.437.773H90.215c8.7,0,11.662-.1,12.1-.4s.907-2.185,1.781-6.654a52.776,52.776,0,0,1,1.479-6.486,66.732,66.732,0,0,1,6.184-2.756l5.949-2.487,5.512,3.663a56.139,56.139,0,0,0,5.949,3.7c.6,0,17.073-16.535,17.073-17.14a50.8,50.8,0,0,0-3.663-5.982l-3.663-5.478,2.588-6.117,2.554-6.117,6.386-1.344c3.529-.739,6.587-1.479,6.822-1.613.571-.4.571-21.778,0-22.349-.3-.3-4.705-.4-17.779-.4-15.7,0-17.443.067-17.947.538a1.466,1.466,0,0,0-.336,1.445,31.757,31.757,0,0,1-7.7,30.55,31.584,31.584,0,0,1-32.566,8.6,32.181,32.181,0,0,1-21.408-22.181,38.029,38.029,0,0,1-.5-14.519c.5-2.756.538-3.5.168-3.932s-2.621-.5-17.846-.5H23.94Zm32.23,3.193c-.471,1.143-.6,9.478-.168,12.133,3.7,23.156,28.5,36.431,49.639,26.618A35.113,35.113,0,0,0,125.6-229.06c-.1-2.05-.3-4.134-.4-4.672l-.2-.907h29.306v8.368c0,7.7-.034,8.4-.571,8.57-.336.1-2.722.571-5.31,1.042-6.049,1.109-6.688,1.344-7.192,2.42-1.58,3.428-5.747,13.914-5.747,14.418a39.77,39.77,0,0,0,3.428,5.781l3.428,5.142-6.755,6.755-6.722,6.722-5.108-3.428a44.872,44.872,0,0,0-5.713-3.462c-.6-.034-14.754,5.68-15.325,6.218a48.945,48.945,0,0,0-1.546,6.419L100-163.558l-9.578.1-9.578.067L79.7-169.339a37.177,37.177,0,0,0-1.68-6.554,60.26,60.26,0,0,0-7.831-3.63c-6.285-2.588-7.461-2.958-8.066-2.655-.4.235-2.823,1.815-5.344,3.529a57.084,57.084,0,0,1-4.873,3.159c-.168,0-3.26-2.991-6.89-6.654l-6.654-6.621,3.529-5.31a56.832,56.832,0,0,0,3.529-5.713,163.219,163.219,0,0,0-6.352-15.09c-.37-.37-2.353-.941-5.915-1.613-2.958-.571-5.713-1.143-6.117-1.243l-.773-.168v-16.737H41.08C55.061-234.639,55.9-234.606,55.666-234.068Z" transform="translate(0 -178.03)" fill="#fbfbfb" stroke="#fbfbfb" stroke-width="1.5"/>
  </g>
</svg>
