<svg xmlns="http://www.w3.org/2000/svg" width="27.987" height="27.98" viewBox="0 0 27.987 27.98">
  <path id="instagram" d="M13.921,38.641A7.174,7.174,0,1,0,21.1,45.815,7.162,7.162,0,0,0,13.921,38.641Zm0,11.838a4.664,4.664,0,1,1,4.664-4.664,4.672,4.672,0,0,1-4.664,4.664Zm9.141-12.131a1.673,1.673,0,1,1-1.673-1.673A1.669,1.669,0,0,1,23.062,38.348Zm4.751,1.7a8.281,8.281,0,0,0-2.26-5.863,8.335,8.335,0,0,0-5.863-2.26c-2.31-.131-9.234-.131-11.544,0a8.323,8.323,0,0,0-5.863,2.254A8.308,8.308,0,0,0,.023,40.04c-.131,2.31-.131,9.234,0,11.544a8.281,8.281,0,0,0,2.26,5.863,8.346,8.346,0,0,0,5.863,2.26c2.31.131,9.234.131,11.544,0a8.281,8.281,0,0,0,5.863-2.26,8.335,8.335,0,0,0,2.26-5.863C27.945,49.274,27.945,42.356,27.813,40.046ZM24.829,54.063a4.722,4.722,0,0,1-2.66,2.66c-1.842.73-6.212.562-8.248.562s-6.412.162-8.248-.562a4.722,4.722,0,0,1-2.66-2.66c-.73-1.842-.562-6.212-.562-8.248s-.162-6.412.562-8.248a4.722,4.722,0,0,1,2.66-2.66c1.842-.73,6.212-.562,8.248-.562s6.412-.162,8.248.562a4.722,4.722,0,0,1,2.66,2.66c.73,1.842.562,6.212.562,8.248S25.559,52.227,24.829,54.063Z" transform="translate(0.075 -31.825)" fill="#fff"/>
</svg>
