<?xml version="1.0" encoding="UTF-8"?>
<svg version="1.1" xmlns="http://www.w3.org/2000/svg" width="2075" height="440">
<path d="M0 0 C0.66 0 1.32 0 2 0 C11.62914576 20.25851341 21.22021758 40.5299169 30.58007812 60.91455078 C33.06017036 66.30371956 35.56197756 71.68278795 38.0625 77.0625 C41.90883573 85.34065023 45.752071 93.62022004 49.58984375 101.90234375 C49.99003723 102.76598038 50.39023071 103.629617 50.80255127 104.51942444 C52.85169483 108.94187434 54.90042513 113.36451532 56.94873047 117.78735352 C60.65976498 125.79942379 64.37424497 133.80980901 68.10546875 141.8125 C68.72267905 143.13735917 69.33986735 144.46222859 69.95703125 145.78710938 C71.08388505 148.20605124 72.21314704 150.62381849 73.34375 153.04101562 C73.83230469 154.08966797 74.32085937 155.13832031 74.82421875 156.21875 C75.45976685 157.5790332 75.45976685 157.5790332 76.1081543 158.96679688 C77 161 77 161 77 162 C69.65612602 162.29489069 62.84328279 161.28153451 55.61475182 160.03191185 C16.06672219 151.87740139 16.06672219 151.87740139 -21.00024414 162.93554688 C-23.10895117 164.4337472 -25.19887675 165.9586709 -27.27099609 167.50708008 C-34.49949507 172.6078589 -42.9798288 175.89419515 -50.97875977 179.59048462 C-55.80684448 181.84295683 -60.58657062 184.19183383 -65.3671875 186.54296875 C-67.26283381 187.47229884 -69.15850457 188.40157906 -71.05419922 189.33081055 C-72.00389587 189.79691742 -72.95359253 190.26302429 -73.93206787 190.74325562 C-79.05756787 193.25859551 -84.18499741 195.76999546 -89.3125 198.28125 C-90.32529022 198.77731247 -91.33808044 199.27337494 -92.38156128 199.7844696 C-101.51359406 204.25533835 -110.65987797 208.69631559 -119.81243896 213.12496948 C-130.65885391 218.37354834 -141.49049247 223.65192624 -152.31771851 228.93997192 C-168.18261848 236.68839969 -184.06346462 244.39968053 -200 252 C-200.33 251.34 -200.66 250.68 -201 250 C-194.69737374 241.91647133 -188.31878468 233.90322345 -181.83691406 225.96264648 C-178.36318994 221.69948624 -174.9427691 217.40001344 -171.5625 213.0625 C-166.8799785 207.05785478 -162.05012135 201.18339877 -157.19384766 195.31884766 C-153.08870595 190.35064851 -149.07466183 185.32146872 -145.11328125 180.23828125 C-141.09081014 175.08669545 -136.9665222 170.0215439 -132.83349609 164.95849609 C-129.36095102 160.69668952 -125.94166643 156.39859852 -122.5625 152.0625 C-117.8799785 146.05785478 -113.05012135 140.18339877 -108.19384766 134.31884766 C-104.08870595 129.35064851 -100.07466183 124.32146872 -96.11328125 119.23828125 C-92.09081014 114.08669545 -87.9665222 109.0215439 -83.83349609 103.95849609 C-80.36095102 99.69668952 -76.94166643 95.39859852 -73.5625 91.0625 C-68.8799785 85.05785478 -64.05012135 79.18339877 -59.19384766 73.31884766 C-55.08870595 68.35064851 -51.07466183 63.32146872 -47.11328125 58.23828125 C-43.09081014 53.08669545 -38.9665222 48.0215439 -34.83349609 42.95849609 C-31.3609491 38.69668717 -27.94175843 34.39852891 -24.5625 30.0625 C-18.69848 22.54575398 -12.64229761 15.18745928 -6.54003906 7.86328125 C-5.53004014 6.64129143 -4.53149323 5.40972552 -3.54589844 4.16796875 C-2.40610065 2.74384686 -1.20840245 1.36639147 0 0 Z " fill="#58BDBA" transform="translate(201,0)"/>
<path d="M0 0 C1.83531891 1.5861806 3.39141213 3.17693374 5 5 C8.15201698 3.53376324 11.03770459 1.7343628 13.97216797 -0.12255859 C35.74199551 -13.73638198 61.94199079 -17.46720201 87 -12 C101.89182571 -8.09394735 114.76449976 -1.51308246 123.1875 11.75 C127.97948199 20.14237488 131.12935291 28.98044614 131.12025452 38.68843079 C131.12231651 40.38998573 131.12231651 40.38998573 131.12442017 42.12591553 C131.12082489 43.36093811 131.11722961 44.59596069 131.11352539 45.8684082 C131.11367142 47.17611679 131.11381744 48.48382538 131.1139679 49.8311615 C131.11425443 53.4092775 131.10838095 56.98735988 131.10139394 60.56546807 C131.09513645 64.30773768 131.0945547 68.05000808 131.09336853 71.7922821 C131.09026228 78.87531647 131.0820584 85.95833538 131.07201904 93.04136294 C131.06083599 101.10661955 131.05534193 109.17187691 131.05032361 117.23713934 C131.0398752 133.82476861 131.02228943 150.41238233 131 167 C126.22263881 168.69973571 122.0485005 169.33622416 117 169.3125 C115.97132813 169.33666992 115.97132813 169.33666992 114.921875 169.36132812 C110.19841022 169.36583525 106.89940946 168.6921795 103 166 C99.19081734 160.45084651 99.57855342 154.93398539 99.61523438 148.46191406 C99.6098616 147.30667236 99.60448883 146.15143066 99.59895325 144.96118164 C99.58918238 142.45672527 99.58622899 139.95223507 99.58930969 137.44776154 C99.59379132 133.47903315 99.58020143 129.51059363 99.56091309 125.54193115 C99.52311671 117.11130284 99.51027652 108.68070002 99.5 100.25 C99.48890683 91.16019777 99.47338156 82.07052899 99.42928743 72.98081756 C99.40810805 68.41210343 99.40976976 63.84371082 99.41540527 59.27496338 C99.40605991 56.86852675 99.3958899 54.46209313 99.38476562 52.05566406 C99.39091385 50.97895447 99.39706207 49.90224487 99.40339661 48.79290771 C99.31668055 38.06503006 97.15608866 29.28499087 89.5 21.4375 C83.30170402 16.56403064 74.8246685 13.4268001 67 13 C66.21625 12.94972656 65.4325 12.89945313 64.625 12.84765625 C49.21052115 12.28753711 33.33345433 17.43558733 21.5 27.5 C20.675 28.325 19.85 29.15 19 30 C19.24377963 31.06386319 19.24377963 31.06386319 19.49248409 32.14921856 C20.00720066 35.04044703 20.12304665 37.67797323 20.12025452 40.61250305 C20.12231651 42.28881554 20.12231651 42.28881554 20.12442017 43.99899292 C20.12082489 45.21531403 20.11722961 46.43163513 20.11352539 47.68481445 C20.11367142 48.9730159 20.11381744 50.26121735 20.1139679 51.5884552 C20.1142544 55.11285412 20.10838136 58.63721889 20.10139394 62.16160989 C20.095136 65.84782503 20.09455467 69.53404099 20.09336853 73.22026062 C20.09026241 80.1970472 20.08205872 87.17381808 20.07201904 94.15059775 C20.06083557 102.09493764 20.05534182 110.03927829 20.05032361 117.9836241 C20.03987551 134.32242525 20.02228999 150.66121062 20 167 C15.22263881 168.69973571 11.0485005 169.33622416 6 169.3125 C4.97132813 169.33666992 4.97132813 169.33666992 3.921875 169.36132812 C-0.80232129 169.36583595 -4.06470349 168.62543764 -8 166 C-12.13337022 161.21290536 -11.42596139 155.63070734 -11.40063477 149.65136719 C-11.41110336 147.9309446 -11.41110336 147.9309446 -11.42178345 146.17576599 C-11.44178406 142.38272784 -11.44126012 138.58996124 -11.44140625 134.796875 C-11.45317793 132.15756496 -11.46654163 129.51826158 -11.48143005 126.87896729 C-11.52237283 119.21394127 -11.54099174 111.54893788 -11.55760193 103.88382721 C-11.58148613 93.47876048 -11.62123336 83.07381481 -11.67487907 72.66886139 C-11.69116912 68.79082677 -11.69498286 64.91291565 -11.69789124 61.03485107 C-11.70767246 58.64530223 -11.71793654 56.25575529 -11.72875977 53.86621094 C-11.72620682 52.79368576 -11.72365387 51.72116058 -11.72102356 50.61613464 C-11.7921706 40.12923855 -13.32653204 31.38461359 -20 23 C-29.14476416 14.81784259 -40.91266396 12.61362797 -52.86328125 12.79296875 C-64.10398407 13.53488313 -73.56861411 16.7344788 -83.63671875 21.4765625 C-87 23 -87 23 -91 24 C-91 71.19 -91 118.38 -91 167 C-96.07830621 168.69276874 -99.8058456 169.33690862 -105 169.3125 C-106.02867187 169.33666992 -106.02867187 169.33666992 -107.078125 169.36132812 C-111.80551127 169.36583899 -115.02784373 168.55765295 -119 166 C-122.05230576 162.76935169 -122.37751147 160.49095079 -122.38768005 156.10601807 C-122.39758469 154.9004425 -122.40748932 153.69486694 -122.41769409 152.45275879 C-122.41319244 151.1332019 -122.4086908 149.81364502 -122.40405273 148.45410156 C-122.40975626 147.04778501 -122.41672045 145.64147308 -122.42485046 144.23516846 C-122.44280442 140.41674146 -122.44160871 136.59854401 -122.43590808 132.78008747 C-122.43281778 129.58946254 -122.43890729 126.3988818 -122.44494683 123.20826316 C-122.45899934 115.67689069 -122.45742628 108.14563162 -122.44604492 100.61425781 C-122.43457769 92.85481433 -122.44861403 85.09571704 -122.4754414 77.33631921 C-122.49763069 70.66777882 -122.50422809 63.99934683 -122.49836498 57.33077216 C-122.49500011 53.35102795 -122.49737833 49.37150535 -122.51461601 45.3917923 C-122.53013349 41.64551679 -122.52607704 37.89975148 -122.50731087 34.15349579 C-122.50189294 32.13210751 -122.51610471 30.11069608 -122.53100586 28.08935547 C-122.46354047 19.74133346 -121.5241524 14.3130317 -116.1328125 7.71484375 C-86.73140917 -18.31169033 -32.18078841 -22.84955608 0 0 Z " fill="#1A1A1A" transform="translate(585,199)"/>
<path d="M0 0 C23.73206869 -0.79008135 47.82297919 2.24843144 66.02246094 19.05078125 C77.023754 30.92119934 80.035184 45.87551853 80.07836914 61.54638672 C80.08494034 62.58779816 80.09151154 63.62920959 80.09828186 64.70217896 C80.11794126 68.13739094 80.12965902 71.57255944 80.13964844 75.0078125 C80.14372396 76.18384159 80.14779949 77.35987068 80.15199852 78.57153702 C80.17282453 84.79231844 80.18714313 91.01307802 80.1965332 97.23388672 C80.20761038 103.65194462 80.24203576 110.06965707 80.2817049 116.4875927 C80.30786096 121.43076212 80.31622401 126.37384891 80.31981468 131.31708145 C80.32468057 133.68291694 80.33629455 136.04874874 80.35485268 138.41451645 C80.37922918 141.72698119 80.37828176 145.03854703 80.37133789 148.35107422 C80.39055298 149.80861115 80.39055298 149.80861115 80.41015625 151.29559326 C80.35216539 158.90421227 78.50190411 164.61273612 73.15136719 170.140625 C51.17989178 187.30729793 16.26963404 189.40746178 -10.21923828 186.25561523 C-24.59446801 184.30649784 -37.23724682 180.81706004 -49.09863281 172.078125 C-49.75347656 171.61792969 -50.40832031 171.15773438 -51.08300781 170.68359375 C-58.87664385 164.70042626 -63.78643893 155.50476161 -66.09863281 146.078125 C-66.28167969 145.35625 -66.46472656 144.634375 -66.65332031 143.890625 C-68.3488283 133.1821535 -68.09772468 121.19756615 -64.09863281 111.078125 C-63.84339844 110.38976562 -63.58816406 109.70140625 -63.32519531 108.9921875 C-58.35880607 97.46469687 -48.01966208 89.49814587 -36.77832031 84.64453125 C-24.01947458 79.83498873 -10.93002707 77.71480482 2.61230469 76.47265625 C3.95999905 76.34313465 5.30762373 76.21288614 6.65518188 76.08195496 C10.14945078 75.74436214 13.64455742 75.41644356 17.13995361 75.09075928 C20.7276673 74.75467057 24.31446983 74.4091258 27.90136719 74.06445312 C34.90051909 73.39325684 41.90060303 72.7323099 48.90136719 72.078125 C48.78167121 69.20768351 48.65122538 66.33839731 48.51464844 63.46875 C48.48213989 62.66260254 48.44963135 61.85645508 48.4161377 61.02587891 C48.09224807 54.49493537 46.81353862 48.97606065 43.90136719 43.078125 C43.36511719 41.985 42.82886719 40.891875 42.27636719 39.765625 C35.60260891 32.21374063 25.07910513 28.12265581 15.16308594 27.20703125 C14.41671875 27.16449219 13.67035156 27.12195313 12.90136719 27.078125 C11.9796875 27.02527344 11.05800781 26.97242188 10.10839844 26.91796875 C-8.57899308 26.38404328 -27.41770037 31.71992673 -43.93457031 40.29296875 C-46.54806946 41.24118775 -47.57889051 41.23514953 -50.09863281 40.078125 C-53.85831622 36.21496406 -56.4831413 31.8386828 -56.72363281 26.390625 C-56.2841051 20.64679691 -53.5529371 17.40116686 -49.37207031 13.59765625 C-36.74603882 3.28402846 -15.76342347 0.58681893 0 0 Z M42.49023438 97.48950195 C41.57457703 97.57992264 40.65891968 97.67034332 39.71551514 97.76350403 C35.48055218 98.18864942 31.2459461 98.6171486 27.01171875 99.04956055 C24.79328703 99.27472395 22.57453871 99.49679231 20.35546875 99.71557617 C-8.39606138 101.52683321 -8.39606138 101.52683321 -32.09863281 116.078125 C-36.25377788 123.04804575 -37.05047866 131.43414476 -35.09863281 139.265625 C-32.48130203 146.7267942 -27.11776583 152.15091029 -20.32910156 156.05078125 C-1.09114145 164.91169808 22.38735154 162.00053212 41.72167969 155.296875 C45.08972448 154.06517285 45.08972448 154.06517285 48.90136719 152.078125 C48.90136719 133.928125 48.90136719 115.778125 48.90136719 97.078125 C46.73476893 97.078125 44.64693293 97.27604975 42.49023438 97.48950195 Z " fill="#1A1A1A" transform="translate(816.0986328125,184.921875)"/>
<path d="M0 0 C11.11027923 10.54773345 16.96109785 24.47656719 17.86777115 39.71788597 C17.9314923 43.01176819 17.9351857 46.30004834 17.91455078 49.59448242 C17.91484283 50.83479218 17.91513489 52.07510193 17.91543579 53.35299683 C17.91429011 56.71803962 17.90433517 60.08282987 17.89028788 63.44782805 C17.8776929 66.97785033 17.87660317 70.50787681 17.87423706 74.03791809 C17.86804784 80.70641025 17.85167206 87.37483597 17.83153808 94.04329902 C17.80909894 101.64194912 17.7981656 109.24060258 17.78814721 116.83927763 C17.76730324 132.45539007 17.73217762 148.07143643 17.6875 163.6875 C12.91013881 165.38723571 8.7360005 166.02372416 3.6875 166 C2.65882813 166.02416992 2.65882813 166.02416992 1.609375 166.04882812 C-3.11482129 166.05333595 -6.37720349 165.31293764 -10.3125 162.6875 C-14.30405364 157.97181593 -13.73269411 152.82740307 -13.69726562 146.96899414 C-13.7026384 145.88859863 -13.70801117 144.80820312 -13.71354675 143.69506836 C-13.7233251 141.34993846 -13.72626874 139.00477237 -13.72319031 136.6596241 C-13.71870785 132.93765717 -13.73272882 129.21616466 -13.75158691 125.49424744 C-13.78838465 117.57950513 -13.80221113 109.66480781 -13.8125 101.75 C-13.8244212 92.60578167 -13.84637959 83.46177249 -13.89250183 74.31765556 C-13.90598379 70.66968901 -13.90191539 67.02202002 -13.89709473 63.3740387 C-13.72456893 39.88674464 -13.72456893 39.88674464 -24.90625 19.94921875 C-34.41886073 10.90775147 -48.35814706 9.25150649 -60.93359375 9.50390625 C-75.43184626 10.29167257 -88.47934639 13.8934775 -101.3125 20.6875 C-101.9725 20.6875 -102.6325 20.6875 -103.3125 20.6875 C-103.3125 67.8775 -103.3125 115.0675 -103.3125 163.6875 C-108.7753459 165.50844863 -112.26839924 166.05275641 -117.8125 166.0625 C-118.54597656 166.08699219 -119.27945313 166.11148438 -120.03515625 166.13671875 C-125.26382544 166.16477959 -128.13483411 165.07241603 -132.3125 161.6875 C-135.72184381 158.27815619 -135.43912241 154.68436743 -135.45294189 150.0280304 C-135.45865204 148.87438492 -135.46436218 147.72073944 -135.47024536 146.53213501 C-135.47136322 145.2702536 -135.47248108 144.00837219 -135.47363281 142.70825195 C-135.47826344 141.36267461 -135.48328844 140.01709857 -135.48867798 138.67152405 C-135.50178264 135.01838105 -135.50824346 131.36525642 -135.51268864 127.71209359 C-135.51562322 125.42716683 -135.51972881 123.14224504 -135.52419281 120.85732079 C-135.53786427 113.70097226 -135.54753196 106.54463517 -135.5513947 99.38827449 C-135.55587108 91.14134847 -135.57340084 82.89458854 -135.6023953 74.64771301 C-135.62405418 68.26452623 -135.63410126 61.88138604 -135.63543582 55.49816293 C-135.63648108 51.68999253 -135.64232888 47.88197835 -135.66025543 44.07384682 C-135.67680852 40.48771359 -135.67885686 36.90185277 -135.67011642 33.31569481 C-135.66898639 31.38394556 -135.68264879 29.45220505 -135.6968689 27.52050781 C-135.65884683 19.54800988 -134.85765424 12.89679355 -130.6875 6 C-100.39078777 -23.49943033 -32.22492685 -27.6488909 0 0 Z " fill="#1A1A1A" transform="translate(1074.3125,202.3125)"/>
<path d="M0 0 C3.83333577 4.51159036 3.42836672 9.22346863 3.40063477 14.84472656 C3.40761383 15.83252106 3.4145929 16.82031555 3.42178345 17.83804321 C3.44178227 21.10565708 3.4412602 24.37295529 3.44140625 27.640625 C3.45318615 29.92446741 3.46655187 32.20830214 3.48143005 34.49212646 C3.51765692 40.51570028 3.53781713 46.53920623 3.55297852 52.56286621 C3.57776246 62.16029057 3.6180013 71.75756442 3.67487907 81.35485077 C3.69101651 84.68519223 3.69496988 88.0153887 3.69789124 91.34576416 C2.99523436 118.58755776 2.99523436 118.58755776 14.6875 142.11328125 C25.83954856 151.21199654 38.60954091 153.395411 52.5625 153.375 C53.70912109 153.37338867 54.85574219 153.37177734 56.03710938 153.37011719 C68.30698771 153.1938457 78.91518538 150.69839288 90.1796875 145.734375 C92 145 92 145 94 145 C94 97.15 94 49.3 94 0 C103.50506226 -3.16835409 109.80720665 -4.48347345 119.2109375 -1.2421875 C122.06982897 0.74280702 123.71781504 2.80527426 125 6 C125.59694618 10.6191008 125.52662576 15.23165921 125.48583984 19.88061523 C125.48798749 21.29869944 125.49186784 22.71678192 125.49734497 24.13485718 C125.50701722 27.97593285 125.491761 31.81654181 125.47143888 35.65756106 C125.4538307 39.68349063 125.45739373 43.70940659 125.4581604 47.73536682 C125.45628884 54.49658991 125.43894613 61.2576332 125.41162109 68.01879883 C125.38018455 75.82593451 125.36962458 83.63287329 125.3710922 91.44006771 C125.37244542 99.76396219 125.35854871 108.08778116 125.34019899 116.4116528 C125.33594496 118.8043956 125.3345178 121.19712613 125.33372116 123.58987236 C125.33170516 127.35658668 125.3194378 131.12313708 125.29938889 134.88979721 C125.29357027 136.2688134 125.29108176 137.64784847 125.29224396 139.02687645 C125.30136795 156.45107831 125.30136795 156.45107831 119 163 C112.48989719 167.99254506 104.96730484 170.99101918 97.3125 173.75 C96.1668457 174.17224854 96.1668457 174.17224854 94.99804688 174.60302734 C81.72354292 179.16104191 68.1593013 180.50784727 54.21557617 180.39111328 C51.93412795 180.37497615 49.65444354 180.39111002 47.37304688 180.41015625 C25.62857559 180.44181757 4.44740624 175.42349961 -11.8984375 160.26171875 C-29.38637811 141.44105404 -28.44233794 116.07406202 -28.29296875 92.08984375 C-28.28736221 89.42370357 -28.2829492 86.75758773 -28.28010559 84.09144592 C-28.27086096 77.837475 -28.24635254 71.58366545 -28.21605712 65.3297649 C-28.18227368 58.19772762 -28.16596757 51.06568175 -28.15097082 43.93358409 C-28.1197941 29.28897434 -28.06718494 14.64449002 -28 0 C-18.61485059 -3.81611034 -9.23049348 -4.69621598 0 0 Z " fill="#1A1A1A" transform="translate(293,191)"/>
<path d="M0 0 C0.66 0 1.32 0 2 0 C11.62914576 20.25851341 21.22021758 40.5299169 30.58007812 60.91455078 C33.06017036 66.30371956 35.56197756 71.68278795 38.0625 77.0625 C41.90883573 85.34065023 45.752071 93.62022004 49.58984375 101.90234375 C49.99003723 102.76598038 50.39023071 103.629617 50.80255127 104.51942444 C52.85169483 108.94187434 54.90042513 113.36451532 56.94873047 117.78735352 C60.65976498 125.79942379 64.37424497 133.80980901 68.10546875 141.8125 C68.72267905 143.13735917 69.33986735 144.46222859 69.95703125 145.78710938 C71.08388505 148.20605124 72.21314704 150.62381849 73.34375 153.04101562 C74.07658203 154.61399414 74.07658203 154.61399414 74.82421875 156.21875 C75.24791748 157.12560547 75.67161621 158.03246094 76.1081543 158.96679688 C77 161 77 161 77 162 C63.49771553 162.2686614 50.03051943 160.52998064 36.625 159.0625 C35.51285503 158.94180145 35.51285503 158.94180145 34.37824249 158.81866455 C9.51378238 156.08706434 -11.83500107 151.01137246 -33 137 C-31.68950045 128.96007875 -29.85975812 121.10853071 -27.82360077 113.22353935 C-27.28053492 111.12031058 -26.74231898 109.01588742 -26.20513916 106.91114807 C-25.05765591 102.41884298 -23.90406939 97.9281168 -22.75 93.4375 C-21.24082052 87.56221053 -19.73474739 81.68613887 -18.234375 75.80859375 C-18.05084158 75.09006855 -17.86730816 74.37154335 -17.67821312 73.63124466 C-14.96003431 62.97252259 -12.39880449 52.28624918 -9.96217346 41.55912781 C-8.18606916 33.74595016 -6.25904186 25.99077306 -4.1875 18.25 C-3.5952145 16.02669071 -3.00528119 13.80275315 -2.41796875 11.578125 C-2.16813232 10.64387695 -1.9182959 9.70962891 -1.66088867 8.74707031 C-0.96299904 5.84620068 -0.45733131 2.94754782 0 0 Z " fill="#1B1B1B" transform="translate(201,0)"/>
<path d="M0 0 C3.69853871 3.57923101 3.94646711 7.53301631 4.12863445 12.52502251 C4.13540305 13.90850168 4.13672783 15.29201415 4.13371277 16.67550659 C4.13597833 17.44098662 4.13824388 18.20646666 4.14057809 18.99514306 C4.14690072 21.55651052 4.14608982 24.11782482 4.14526367 26.67919922 C4.14825643 28.51764494 4.15165923 30.35609003 4.15544128 32.1945343 C4.16427819 37.18889111 4.1666194 42.18323079 4.16725707 47.17759466 C4.16796828 50.30263414 4.17010406 53.42766927 4.17275429 56.55270767 C4.18200995 67.46938605 4.1860893 78.38605221 4.18530273 89.30273438 C4.18470338 99.45281983 4.19522668 109.60285189 4.2110464 119.75292385 C4.2241651 128.48355033 4.22948475 137.21415947 4.22884732 145.94479573 C4.22859341 151.15149824 4.23138497 156.3581534 4.24202538 161.56484604 C4.25177823 166.47158646 4.25173676 171.37823501 4.24450874 176.28497887 C4.24347145 178.07507272 4.24577426 179.8651725 4.2518692 181.65525627 C4.31599262 201.8124287 3.2744739 221.60759074 -11.1015625 237.29296875 C-19.21716613 244.93540114 -27.8091555 249.10748118 -38.9375 249.25 C-40.74541016 249.28867187 -40.74541016 249.28867187 -42.58984375 249.328125 C-47.38751588 248.86649332 -49.88064777 247.15133372 -53.1875 243.75 C-55.74731111 239.86614866 -57.03161229 236.2163726 -56.96484375 231.53515625 C-55.53604567 227.7809459 -52.661828 226.66068033 -49.25 224.9375 C-40.70279931 220.45997267 -34.84036459 216.01712219 -31.12701702 206.8432951 C-28.23490171 197.54360838 -28.55859152 188.21182966 -28.56762695 178.57543945 C-28.55859834 176.62309656 -28.54826844 174.67075932 -28.53674316 172.71842957 C-28.50927619 167.44650663 -28.49990267 162.17469157 -28.49388909 156.90270638 C-28.48447854 151.38270091 -28.45827301 145.86277516 -28.43388367 140.34281921 C-28.39028865 129.90257427 -28.36169872 119.46234487 -28.33856028 109.02203673 C-28.31147106 97.13078888 -28.26756186 85.23962151 -28.22227156 73.34843123 C-28.12952551 48.89899784 -28.05779885 24.44953922 -28 0 C-18.52995062 -3.85063165 -9.34041547 -4.58827426 0 0 Z " fill="#1A1A1A" transform="translate(215,191)"/>
<path d="M0 0 C2.53588226 3.12830792 4.21337898 6.31714086 5.8984375 9.96875 C6.73097046 11.7633667 6.73097046 11.7633667 7.58032227 13.59423828 C8.17861823 14.89612666 8.77684223 16.19804812 9.375 17.5 C10.00076895 18.85291087 10.62699668 20.20560962 11.25366211 21.55810547 C12.54338823 24.34331192 13.83060014 27.12965867 15.11572266 29.91699219 C17.38900475 34.84608887 19.67738468 39.76810605 21.96582031 44.69018555 C23.58173862 48.16638657 25.19548555 51.64358791 26.80859375 55.12109375 C28.88303622 59.59294955 30.95844412 64.06435401 33.03515625 68.53515625 C37.88963929 78.98632709 42.74086346 89.43899539 47.5859375 99.89453125 C47.98637772 100.75866135 48.38681793 101.62279144 48.7993927 102.5131073 C50.84969906 106.93781247 52.89960702 111.36270174 54.94897461 115.7878418 C58.65991287 123.79975623 62.37432182 131.80997384 66.10546875 139.8125 C66.72267905 141.13735917 67.33986735 142.46222859 67.95703125 143.78710938 C69.08388505 146.20605124 70.21314704 148.62381849 71.34375 151.04101562 C72.07658203 152.61399414 72.07658203 152.61399414 72.82421875 154.21875 C73.24791748 155.12560547 73.67161621 156.03246094 74.1081543 156.96679688 C75 159 75 159 75 160 C66.7940137 160.25334449 58.80766766 159.26814347 50.68359375 158.25 C49.2167784 158.07016576 47.74990411 157.89081173 46.28297424 157.71191406 C42.45035833 157.24321933 38.6185704 156.76806909 34.78692627 156.29150391 C30.86559763 155.80496699 26.94350991 155.32463087 23.02148438 154.84375 C15.34690622 153.90185125 7.67319335 152.95312153 0 152 C2.80841669 149.02491767 5.67178966 147.47767792 9.34765625 145.64453125 C10.26640785 145.18478157 10.26640785 145.18478157 11.20372009 144.71574402 C12.49415996 144.07169087 13.78607112 143.43057823 15.0793457 142.79223633 C17.06263122 141.81243517 19.04033772 140.82201214 21.01757812 139.83007812 C30.72081243 135 30.72081243 135 33 135 C32.8078038 134.24374329 32.6156076 133.48748657 32.41758728 132.70831299 C26.80226332 110.61039254 21.19938246 88.50933626 15.60843658 66.40523529 C15.0127729 64.05049306 14.41690101 61.6958036 13.82098389 59.34112549 C11.82983267 51.47219695 9.84206069 43.60243659 7.86347866 35.73033714 C7.03947189 32.45191632 6.21396829 29.17389203 5.38449097 25.89685059 C4.46798429 22.27218885 3.55741414 18.64608749 2.6484375 15.01953125 C2.37744736 13.95303848 2.10645721 12.88654572 1.82725525 11.78773499 C1.46296165 10.32623268 1.46296165 10.32623268 1.09130859 8.83520508 C0.87912689 7.99234451 0.66694519 7.14948395 0.44833374 6.28108215 C0 4 0 4 0 0 Z " fill="#FE9801" transform="translate(203,2)"/>
<path d="M0 0 C3.96 0 7.92 0 12 0 C13.7148681 4.92758532 15.42370025 9.85720608 17.12695312 14.78881836 C17.70732517 16.4664766 18.28934749 18.14356488 18.87304688 19.82006836 C19.71137224 22.22882807 20.54375694 24.63956978 21.375 27.05078125 C21.63748535 27.80087967 21.8999707 28.55097809 22.17041016 29.32380676 C23.20420273 32.33806007 24 34.78955964 24 38 C24.66 38 25.32 38 26 38 C26.22429687 36.82566406 26.44859375 35.65132813 26.6796875 34.44140625 C28.23861224 27.42624491 30.74294387 20.7048933 33.125 13.9375 C33.5981182 12.5815413 34.07077806 11.22542259 34.54296875 9.86914062 C35.69003678 6.57756639 36.84328344 3.28819785 38 0 C41.96 0 45.92 0 50 0 C51.6884601 6.34603834 52.87792667 12.69864693 53.9453125 19.17578125 C54.12005096 20.22275681 54.29478943 21.26973236 54.474823 22.34843445 C54.84106533 24.54754023 55.20571406 26.74691195 55.56884766 28.9465332 C56.1262235 32.31990494 56.68970199 35.69221747 57.25390625 39.06445312 C57.60973675 41.20566908 57.96521784 43.34694314 58.3203125 45.48828125 C58.48902863 46.49764236 58.65774475 47.50700348 58.83157349 48.54695129 C58.98528412 49.48189926 59.13899475 50.41684723 59.29736328 51.38012695 C59.43345001 52.20205032 59.56953674 53.02397369 59.70974731 53.87080383 C60 56 60 56 60 59 C56.04 59 52.08 59 48 59 C45.03 42.665 45.03 42.665 42 26 C38.37 36.89 34.74 47.78 31 59 C27.04 59 23.08 59 19 59 C15.37 48.11 11.74 37.22 8 26 C6.02 36.89 4.04 47.78 2 59 C-1.96 59 -5.92 59 -10 59 C-8.70769907 47.54308038 -6.92976109 36.21778461 -4.91333008 24.86791992 C-4.43022157 22.14649955 -3.95397328 19.42393834 -3.47851562 16.70117188 C-3.17226939 14.96086805 -2.86564342 13.220631 -2.55859375 11.48046875 C-2.41691269 10.67119431 -2.27523163 9.86191986 -2.1292572 9.02812195 C-1.57695938 5.93227776 -0.99599111 2.98797333 0 0 Z " fill="#59BEBB" transform="translate(1521,304)"/>
<path d="M0 0 C3.96 0 7.92 0 12 0 C12 61.71 12 123.42 12 187 C8.04 187 4.08 187 0 187 C0 125.29 0 63.58 0 0 Z " fill="#1A1A1A" transform="translate(1169,186)"/>
<path d="M0 0 C12 0 12 0 14.5703125 1.84375 C15.08335938 2.7203125 15.59640625 3.596875 16.125 4.5 C16.74246094 5.49515625 17.35992188 6.4903125 17.99609375 7.515625 C18.31304199 8.06927734 18.62999023 8.62292969 18.95654297 9.19335938 C20.51722103 11.89551606 22.20032555 14.51771744 23.86865234 17.15429688 C25.48579365 19.72400086 27.06688733 22.31509398 28.64135742 24.91113281 C30.65733814 28.01063524 32.85090421 30.9912659 35 34 C35.33 22.78 35.66 11.56 36 0 C39.96 0 43.92 0 48 0 C48 19.47 48 38.94 48 59 C36 59 36 59 33.2800293 56.86376953 C32.71711182 55.88005371 32.15419434 54.89633789 31.57421875 53.8828125 C30.92259766 52.8 30.27097656 51.7171875 29.59960938 50.6015625 C28.96861328 49.45429688 28.33761719 48.30703125 27.6875 47.125 C26.38071372 44.8973762 25.0721386 42.67080076 23.76171875 40.4453125 C23.20444092 39.45031738 22.64716309 38.45532227 22.07299805 37.43017578 C19.27865699 32.80639862 16.09816487 28.42594981 13 24 C12.67 35.55 12.34 47.1 12 59 C8.04 59 4.08 59 0 59 C0 39.53 0 20.06 0 0 Z " fill="#59BEBB" transform="translate(1632,304)"/>
<path d="M0 0 C12 0 12 0 14.5703125 1.84375 C15.08335938 2.7203125 15.59640625 3.596875 16.125 4.5 C16.74246094 5.49515625 17.35992188 6.4903125 17.99609375 7.515625 C18.31304199 8.06927734 18.62999023 8.62292969 18.95654297 9.19335938 C20.51722103 11.89551606 22.20032555 14.51771744 23.86865234 17.15429688 C25.48579365 19.72400086 27.06688733 22.31509398 28.64135742 24.91113281 C30.65733814 28.01063524 32.85090421 30.9912659 35 34 C35.33 22.78 35.66 11.56 36 0 C39.96 0 43.92 0 48 0 C48 19.47 48 38.94 48 59 C36 59 36 59 33.2800293 56.86376953 C32.71711182 55.88005371 32.15419434 54.89633789 31.57421875 53.8828125 C30.92259766 52.8 30.27097656 51.7171875 29.59960938 50.6015625 C28.96861328 49.45429688 28.33761719 48.30703125 27.6875 47.125 C26.38071372 44.8973762 25.0721386 42.67080076 23.76171875 40.4453125 C23.20444092 39.45031738 22.64716309 38.45532227 22.07299805 37.43017578 C19.27865699 32.80639862 16.09816487 28.42594981 13 24 C12.67 35.55 12.34 47.1 12 59 C8.04 59 4.08 59 0 59 C0 39.53 0 20.06 0 0 Z " fill="#59BEBB" transform="translate(1276,304)"/>
<path d="M0 0 C12 0 12 0 14.5703125 1.84375 C15.08335938 2.7203125 15.59640625 3.596875 16.125 4.5 C16.74246094 5.49515625 17.35992188 6.4903125 17.99609375 7.515625 C18.31304199 8.06927734 18.62999023 8.62292969 18.95654297 9.19335938 C20.51722103 11.89551606 22.20032555 14.51771744 23.86865234 17.15429688 C25.48579365 19.72400086 27.06688733 22.31509398 28.64135742 24.91113281 C30.65733814 28.01063524 32.85090421 30.9912659 35 34 C35.33 22.78 35.66 11.56 36 0 C39.96 0 43.92 0 48 0 C48 19.47 48 38.94 48 59 C36 59 36 59 33.2800293 56.86376953 C32.71711182 55.88005371 32.15419434 54.89633789 31.57421875 53.8828125 C30.92259766 52.8 30.27097656 51.7171875 29.59960938 50.6015625 C28.96861328 49.45429688 28.33761719 48.30703125 27.6875 47.125 C26.38071372 44.8973762 25.0721386 42.67080076 23.76171875 40.4453125 C23.20444092 39.45031738 22.64716309 38.45532227 22.07299805 37.43017578 C19.27865699 32.80639862 16.09816487 28.42594981 13 24 C12.67 35.55 12.34 47.1 12 59 C8.04 59 4.08 59 0 59 C0 39.53 0 20.06 0 0 Z " fill="#59BEBB" transform="translate(1536,206)"/>
<path d="M0 0 C7.39270187 4.92362659 13.13635791 10.76844873 15.98828125 19.32421875 C16.72676301 29.20932459 17.1018364 37.98298461 10.98828125 46.32421875 C8.48828125 49.19921875 8.48828125 49.19921875 5.98828125 51.32421875 C4.84359375 52.37609375 4.84359375 52.37609375 3.67578125 53.44921875 C-4.33886528 59.04083261 -12.46787351 59.23123678 -22.01171875 58.32421875 C-30.55696476 56.24110504 -36.5304146 51.93850146 -41.26171875 44.51171875 C-45.85813115 36.40181834 -47.27040882 28.58904813 -44.88671875 19.44921875 C-41.83356496 10.14840768 -36.7867188 3.78484377 -28.01171875 -0.67578125 C-19.36147688 -4.15741387 -8.34833513 -4.48074484 0 0 Z M-30.01171875 16.32421875 C-33.89540533 21.81494806 -33.80492749 27.84486199 -33.01171875 34.32421875 C-30.31008705 40.03920889 -25.86325135 43.93013615 -20.19921875 46.69921875 C-14.54626403 47.80764124 -9.88615605 47.29748427 -4.76171875 44.63671875 C-0.87874083 41.37148732 2.35006187 38.2388769 3.98828125 33.32421875 C4.49577042 27.10747646 4.76026455 21.55632462 0.98828125 16.32421875 C-3.53705695 11.58175574 -7.77736718 8.88137027 -14.38671875 8.01171875 C-20.95547307 8.79371331 -25.78663608 11.1334029 -30.01171875 16.32421875 Z " fill="#59BEBB" transform="translate(2032.01171875,305.67578125)"/>
<path d="M0 0 C30.32352941 0 30.32352941 0 38.3125 5.125 C45.7503222 13.08174002 48.46534966 22.17001692 48.25 32.9375 C47.6367199 40.45018126 45.39762132 47.56085851 40 53 C27.48834818 62.59558954 17.96531124 59 0 59 C0 39.53 0 20.06 0 0 Z M12 11 C12 23.21 12 35.42 12 48 C23.057897 48.53250664 23.057897 48.53250664 31.8125 43.3125 C35.91576155 37.09898965 36.39788006 31.82488442 35.53515625 24.5859375 C34.47929406 19.48388809 32.06612965 16.83929355 28.0625 13.6875 C22.353858 10.54192176 18.81863955 11 12 11 Z " fill="#59BEBB" transform="translate(1821,304)"/>
<path d="M0 0 C30.32352941 0 30.32352941 0 38.3125 5.125 C45.7503222 13.08174002 48.46534966 22.17001692 48.25 32.9375 C47.6367199 40.45018126 45.39762132 47.56085851 40 53 C27.48834818 62.59558954 17.96531124 59 0 59 C0 39.53 0 20.06 0 0 Z M12 11 C12 23.21 12 35.42 12 48 C23.057897 48.53250664 23.057897 48.53250664 31.8125 43.3125 C35.91576155 37.09898965 36.39788006 31.82488442 35.53515625 24.5859375 C34.47929406 19.48388809 32.06612965 16.83929355 28.0625 13.6875 C22.353858 10.54192176 18.81863955 11 12 11 Z " fill="#59BEBB" transform="translate(1597,206)"/>
<path d="M0 0 C30.32352941 0 30.32352941 0 38.3125 5.125 C45.7503222 13.08174002 48.46534966 22.17001692 48.25 32.9375 C47.6367199 40.45018126 45.39762132 47.56085851 40 53 C27.48834818 62.59558954 17.96531124 59 0 59 C0 39.53 0 20.06 0 0 Z M12 11 C12 23.21 12 35.42 12 48 C23.057897 48.53250664 23.057897 48.53250664 31.8125 43.3125 C35.91576155 37.09898965 36.39788006 31.82488442 35.53515625 24.5859375 C34.47929406 19.48388809 32.06612965 16.83929355 28.0625 13.6875 C22.353858 10.54192176 18.81863955 11 12 11 Z " fill="#59BEBB" transform="translate(1410,206)"/>
<path d="M0 0 C26.515625 0 26.515625 0 31.7421875 4.5 C36.12544205 10.30403362 36.60861268 14.90689583 36 22 C34.31556702 26.78733585 32.08142415 29.06974677 28 32 C27.34 32.66 26.68 33.32 26 34 C26.39380859 34.72179443 26.78761719 35.44358887 27.19335938 36.18725586 C28.96439696 39.43616668 30.73223939 42.68680508 32.5 45.9375 C33.43005859 47.64196289 33.43005859 47.64196289 34.37890625 49.38085938 C35.25869141 51.00024414 35.25869141 51.00024414 36.15625 52.65234375 C36.70087891 53.65257568 37.24550781 54.65280762 37.80664062 55.68334961 C39 58 39 58 39 59 C34.38 59 29.76 59 25 59 C21.04 51.74 17.08 44.48 13 37 C12.67 44.26 12.34 51.52 12 59 C8.04 59 4.08 59 0 59 C0 39.53 0 20.06 0 0 Z M12 11 C12 14.96 12 18.92 12 23 C17.02254631 23.2954439 19.89542386 22.98514628 24 20 C23.87793111 15.26594687 23.87793111 15.26594687 21.375 11.5625 C18.20862399 10.81256884 15.24002269 10.87538374 12 11 Z " fill="#59BEBB" transform="translate(1786,206)"/>
<path d="M0 0 C4.29 0 8.58 0 13 0 C15.32963994 6.02818813 17.65914269 12.05642926 19.98852539 18.0847168 C20.77885345 20.12997831 21.56921719 22.17522603 22.35961914 24.22045898 C22.74174561 25.20925049 23.12387207 26.19804199 23.51757812 27.21679688 C23.89568634 28.19512482 24.27379456 29.17345276 24.6633606 30.181427 C25.41274781 32.12124967 26.16167417 34.06125045 26.91012573 36.00143433 C28.48731752 40.08969491 30.06649003 44.17695769 31.66650391 48.25634766 C32.12331543 49.42601074 32.58012695 50.59567383 33.05078125 51.80078125 C33.43532471 52.77829346 33.81986816 53.75580566 34.21606445 54.76293945 C35 57 35 57 35 59 C30.71 59 26.42 59 22 59 C18 49.25 18 49.25 18 47 C10.41 47.33 2.82 47.66 -5 48 C-6.98 52.95 -6.98 52.95 -9 58 C-10 59 -10 59 -12.72265625 59.09765625 C-13.82480469 59.08605469 -14.92695312 59.07445312 -16.0625 59.0625 C-17.16722656 59.05347656 -18.27195312 59.04445313 -19.41015625 59.03515625 C-20.69212891 59.01775391 -20.69212891 59.01775391 -22 59 C-21.37472909 55.46494096 -20.45039509 52.25913211 -19.17407227 48.90600586 C-18.61327721 47.4243821 -18.61327721 47.4243821 -18.04115295 45.91282654 C-17.63698654 44.85749222 -17.23282013 43.8021579 -16.81640625 42.71484375 C-16.40083969 41.62160294 -15.98527313 40.52836212 -15.55711365 39.4019928 C-14.67885939 37.09402519 -13.79869179 34.78678488 -12.91674805 32.48022461 C-11.56683596 28.94884292 -10.22336903 25.41506093 -8.88085938 21.88085938 C-8.0264215 19.6378761 -7.17161618 17.39503277 -6.31640625 15.15234375 C-5.91426407 14.0949852 -5.51212189 13.03762665 -5.09779358 11.94822693 C-4.72077805 10.96362991 -4.34376251 9.9790329 -3.95532227 8.96459961 C-3.62524673 8.10031845 -3.2951712 7.23603729 -2.95509338 6.3455658 C-2.07514594 4.18454714 -1.04348542 2.08697084 0 0 Z M6 17 C4.83061634 19.97810741 3.66495037 22.95765591 2.5 25.9375 C2.16613281 26.78763672 1.83226562 27.63777344 1.48828125 28.51367188 C1.17246094 29.32255859 0.85664062 30.13144531 0.53125 30.96484375 C0.23798828 31.7137085 -0.05527344 32.46257324 -0.35742188 33.23413086 C-1.05699195 34.84342811 -1.05699195 34.84342811 -1 36 C3.95 36 8.9 36 14 36 C11.69 29.73 9.38 23.46 7 17 C6.67 17 6.34 17 6 17 Z " fill="#59BEBB" transform="translate(1874,206)"/>
<path d="M0 0 C4.29 0 8.58 0 13 0 C15.32963994 6.02818813 17.65914269 12.05642926 19.98852539 18.0847168 C20.77885345 20.12997831 21.56921719 22.17522603 22.35961914 24.22045898 C22.74174561 25.20925049 23.12387207 26.19804199 23.51757812 27.21679688 C23.89568634 28.19512482 24.27379456 29.17345276 24.6633606 30.181427 C25.41274781 32.12124967 26.16167417 34.06125045 26.91012573 36.00143433 C28.48731752 40.08969491 30.06649003 44.17695769 31.66650391 48.25634766 C32.12331543 49.42601074 32.58012695 50.59567383 33.05078125 51.80078125 C33.43532471 52.77829346 33.81986816 53.75580566 34.21606445 54.76293945 C35 57 35 57 35 59 C30.71 59 26.42 59 22 59 C18 49.25 18 49.25 18 47 C10.41 47.33 2.82 47.66 -5 48 C-6.98 52.95 -6.98 52.95 -9 58 C-10 59 -10 59 -12.72265625 59.09765625 C-13.82480469 59.08605469 -14.92695312 59.07445312 -16.0625 59.0625 C-17.16722656 59.05347656 -18.27195312 59.04445313 -19.41015625 59.03515625 C-20.69212891 59.01775391 -20.69212891 59.01775391 -22 59 C-21.37472909 55.46494096 -20.45039509 52.25913211 -19.17407227 48.90600586 C-18.61327721 47.4243821 -18.61327721 47.4243821 -18.04115295 45.91282654 C-17.63698654 44.85749222 -17.23282013 43.8021579 -16.81640625 42.71484375 C-16.40083969 41.62160294 -15.98527313 40.52836212 -15.55711365 39.4019928 C-14.67885939 37.09402519 -13.79869179 34.78678488 -12.91674805 32.48022461 C-11.56683596 28.94884292 -10.22336903 25.41506093 -8.88085938 21.88085938 C-8.0264215 19.6378761 -7.17161618 17.39503277 -6.31640625 15.15234375 C-5.91426407 14.0949852 -5.51212189 13.03762665 -5.09779358 11.94822693 C-4.72077805 10.96362991 -4.34376251 9.9790329 -3.95532227 8.96459961 C-3.62524673 8.10031845 -3.2951712 7.23603729 -2.95509338 6.3455658 C-2.07514594 4.18454714 -1.04348542 2.08697084 0 0 Z M6 17 C4.83061634 19.97810741 3.66495037 22.95765591 2.5 25.9375 C2.16613281 26.78763672 1.83226562 27.63777344 1.48828125 28.51367188 C1.17246094 29.32255859 0.85664062 30.13144531 0.53125 30.96484375 C0.23798828 31.7137085 -0.05527344 32.46257324 -0.35742188 33.23413086 C-1.05699195 34.84342811 -1.05699195 34.84342811 -1 36 C3.95 36 8.9 36 14 36 C11.69 29.73 9.38 23.46 7 17 C6.67 17 6.34 17 6 17 Z " fill="#59BEBB" transform="translate(1314,206)"/>
<path d="M0 0 C2.84204801 2.17223636 5.46435607 4.47852168 8 7 C6.31847927 10.74020498 4.30960527 12.56134348 1 15 C-2.02326302 13.90063163 -4.4692114 12.69639262 -7.1875 10.9375 C-12.17531433 8.05324215 -17.5487835 7.41970696 -23.20703125 8.37109375 C-28.58707947 10.0272845 -32.19925226 13.13746402 -35 18 C-37.32692449 23.99059284 -37.45810493 29.06387827 -35.0390625 35.02734375 C-32.36644089 40.10130583 -28.56608167 42.80070416 -23.2421875 44.55859375 C-15.8246483 46.01884101 -10.14868635 43.97856175 -4 40 C-2.34827188 39.29713697 -0.68698082 38.61344757 1 38 C3.31 40.31 5.62 42.62 8 45 C3.08989283 51.38313932 -1.92845245 55.49011261 -10 57 C-21.54788702 57.77750674 -30.86964372 57.28562747 -40.3125 49.875 C-47.32836766 43.17157988 -49.70385097 35.66570706 -50.0625 26.10546875 C-49.87575656 16.8266541 -46.89503211 9.73014682 -40.14453125 3.20703125 C-29.04309009 -5.76718765 -12.40062905 -7.53593394 0 0 Z " fill="#59BEBB" transform="translate(1972,307)"/>
<path d="M0 0 C3.96 0 7.92 0 12 0 C12.02505615 1.28165039 12.0501123 2.56330078 12.07592773 3.88378906 C12.17011595 8.6399125 12.2703089 13.39589379 12.37231445 18.15185547 C12.41562009 20.21008987 12.45729829 22.26835918 12.49731445 24.32666016 C12.55512275 27.28558879 12.61878696 30.2443424 12.68359375 33.203125 C12.70030624 34.12305237 12.71701874 35.04297974 12.73423767 35.99078369 C12.75418289 36.8513739 12.77412811 37.71196411 12.79467773 38.59863281 C12.81022202 39.35364075 12.8257663 40.10864868 12.84178162 40.88653564 C13.00185633 43.02479671 13.41816368 44.93989084 14 47 C19.19014949 47.9165249 19.19014949 47.9165249 24.375 47.5625 C28.33972228 43.75026703 28.24227447 36.53309009 28.37905884 31.29992676 C28.39061005 30.51001343 28.40216125 29.7201001 28.4140625 28.90625 C28.43342865 28.07411987 28.4527948 27.24198975 28.4727478 26.38464355 C28.53198326 23.75652958 28.5787021 21.12837044 28.625 18.5 C28.6632315 16.70571127 28.70228615 14.91143987 28.7421875 13.1171875 C28.83763781 8.74493439 28.92187257 4.37259555 29 0 C32.96 0 36.92 0 41 0 C41.04973696 5.67422229 41.0858782 11.34831538 41.10986328 17.02270508 C41.11987087 18.94981092 41.1334811 20.87690178 41.15087891 22.80395508 C41.17535921 25.58678913 41.18653578 28.36942101 41.1953125 31.15234375 C41.20563507 32.00271713 41.21595764 32.85309052 41.22659302 33.72923279 C41.2279446 41.06744612 40.93387782 48.84213918 35.6875 54.4375 C35.11386719 55.07558594 34.54023437 55.71367187 33.94921875 56.37109375 C28.91130736 60.58113193 23.5339413 60.42329934 17.234375 60.31640625 C11.41092847 59.74672126 7.71662124 57.71662124 3.625 53.625 C-0.2251426 47.40553888 -0.27212982 41.66486028 -0.1953125 34.5703125 C-0.1924826 33.57998016 -0.18965271 32.58964783 -0.18673706 31.56930542 C-0.1755847 28.42107824 -0.15048907 25.27314051 -0.125 22.125 C-0.11496382 19.98437912 -0.10583908 17.84375376 -0.09765625 15.703125 C-0.07566153 10.46863928 -0.04116563 5.23436864 0 0 Z " fill="#59BEBB" transform="translate(1655,206)"/>
<path d="M0 0 C3.96 0 7.92 0 12 0 C12.02505615 1.28165039 12.0501123 2.56330078 12.07592773 3.88378906 C12.17011595 8.6399125 12.2703089 13.39589379 12.37231445 18.15185547 C12.41562009 20.21008987 12.45729829 22.26835918 12.49731445 24.32666016 C12.55512275 27.28558879 12.61878696 30.2443424 12.68359375 33.203125 C12.70030624 34.12305237 12.71701874 35.04297974 12.73423767 35.99078369 C12.75418289 36.8513739 12.77412811 37.71196411 12.79467773 38.59863281 C12.81022202 39.35364075 12.8257663 40.10864868 12.84178162 40.88653564 C13.00185633 43.02479671 13.41816368 44.93989084 14 47 C19.19014949 47.9165249 19.19014949 47.9165249 24.375 47.5625 C28.33972228 43.75026703 28.24227447 36.53309009 28.37905884 31.29992676 C28.39061005 30.51001343 28.40216125 29.7201001 28.4140625 28.90625 C28.43342865 28.07411987 28.4527948 27.24198975 28.4727478 26.38464355 C28.53198326 23.75652958 28.5787021 21.12837044 28.625 18.5 C28.6632315 16.70571127 28.70228615 14.91143987 28.7421875 13.1171875 C28.83763781 8.74493439 28.92187257 4.37259555 29 0 C32.96 0 36.92 0 41 0 C41.04973696 5.67422229 41.0858782 11.34831538 41.10986328 17.02270508 C41.11987087 18.94981092 41.1334811 20.87690178 41.15087891 22.80395508 C41.17535921 25.58678913 41.18653578 28.36942101 41.1953125 31.15234375 C41.20563507 32.00271713 41.21595764 32.85309052 41.22659302 33.72923279 C41.2279446 41.06744612 40.93387782 48.84213918 35.6875 54.4375 C35.11386719 55.07558594 34.54023437 55.71367187 33.94921875 56.37109375 C28.91130736 60.58113193 23.5339413 60.42329934 17.234375 60.31640625 C11.41092847 59.74672126 7.71662124 57.71662124 3.625 53.625 C-0.2251426 47.40553888 -0.27212982 41.66486028 -0.1953125 34.5703125 C-0.1924826 33.57998016 -0.18965271 32.58964783 -0.18673706 31.56930542 C-0.1755847 28.42107824 -0.15048907 25.27314051 -0.125 22.125 C-0.11496382 19.98437912 -0.10583908 17.84375376 -0.09765625 15.703125 C-0.07566153 10.46863928 -0.04116563 5.23436864 0 0 Z " fill="#59BEBB" transform="translate(1357,206)"/>
<path d="M0 0 C10.89 0 21.78 0 33 0 C33 3.63 33 7.26 33 11 C26.07 11 19.14 11 12 11 C12 14.3 12 17.6 12 21 C18.93 21 25.86 21 33 21 C33 24.63 33 28.26 33 32 C26.07 32 19.14 32 12 32 C12 37.28 12 42.56 12 48 C18.93 48 25.86 48 33 48 C33 51.63 33 55.26 33 59 C22.11 59 11.22 59 0 59 C0 39.53 0 20.06 0 0 Z " fill="#59BEBB" transform="translate(1589,304)"/>
<path d="M0 0 C10.89 0 21.78 0 33 0 C33 3.63 33 7.26 33 11 C26.07 11 19.14 11 12 11 C12 14.3 12 17.6 12 21 C18.93 21 25.86 21 33 21 C33 24.63 33 28.26 33 32 C26.07 32 19.14 32 12 32 C12 37.28 12 42.56 12 48 C18.93 48 25.86 48 33 48 C33 51.63 33 55.26 33 59 C22.11 59 11.22 59 0 59 C0 39.53 0 20.06 0 0 Z " fill="#59BEBB" transform="translate(1395,304)"/>
<path d="M0 0 C4.29 0 8.58 0 13 0 C13.38857178 1.11560303 13.77714355 2.23120605 14.17749023 3.38061523 C15.61517623 7.50581958 17.0566391 11.62969559 18.49926758 15.75317383 C19.12400341 17.54057181 19.74770404 19.32833196 20.37036133 21.11645508 C21.26373982 23.68145348 22.16079098 26.24514113 23.05859375 28.80859375 C23.3377916 29.6127623 23.61698944 30.41693085 23.90464783 31.24546814 C24.96104558 34.90280512 24.96104558 34.90280512 27 38 C27.38857178 36.91992676 27.77714355 35.83985352 28.17749023 34.72705078 C29.61684076 30.72725393 31.05780723 26.72804085 32.49926758 22.72900391 C33.12340825 20.9967415 33.74710813 19.2643202 34.37036133 17.53173828 C35.26528468 15.04417886 36.16178169 12.55719153 37.05859375 10.0703125 C37.3377916 9.29317902 37.61698944 8.51604553 37.90464783 7.71536255 C39.88612829 2.22774341 39.88612829 2.22774341 41 0 C44.96 0 48.92 0 53 0 C51.5776265 7.21346561 49.39253448 13.91864894 46.8671875 20.81640625 C46.47048859 21.91347397 46.07378967 23.01054169 45.66506958 24.14085388 C44.40689082 27.61663894 43.14107441 31.08958422 41.875 34.5625 C41.01641957 36.93015456 40.15834141 39.29799133 39.30078125 41.66601562 C37.20632598 47.44613461 35.10502017 53.22372063 33 59 C28.71 59 24.42 59 20 59 C17.38901398 51.60382656 14.78066201 44.2067371 12.17697144 36.80799294 C10.96794306 33.37271105 9.75775255 29.93784776 8.54492188 26.50390625 C7.37510027 23.19160312 6.20831096 19.87824647 5.04364014 16.56412888 C4.38097989 14.68105547 3.7151622 12.79909415 3.04931641 10.91714478 C2.64890137 9.77611298 2.24848633 8.63508118 1.8359375 7.45947266 C1.48063965 6.451315 1.1253418 5.44315735 0.75927734 4.40444946 C0 2 0 2 0 0 Z " fill="#59BEBB" transform="translate(1333,304)"/>
<path d="M0 0 C3.50702033 2.52831698 6.05546751 5.53079128 8.6875 8.9375 C7.62033928 10.13955464 6.53311663 11.32382333 5.4375 12.5 C4.83421875 13.16128906 4.2309375 13.82257813 3.609375 14.50390625 C1.6875 15.9375 1.6875 15.9375 -0.546875 15.65234375 C-1.12953125 15.41644531 -1.7121875 15.18054688 -2.3125 14.9375 C-2.3125 14.2775 -2.3125 13.6175 -2.3125 12.9375 C-6.09437881 11.10058743 -8.25818308 10.77912374 -12.3125 11.9375 C-11.83325953 16.33434116 -10.62823601 18.01951585 -7.25 20.8125 C-6.44046875 21.49957031 -5.6309375 22.18664062 -4.796875 22.89453125 C-3.22610952 24.18621418 -1.65343532 25.47558253 -0.078125 26.76171875 C4.80788133 30.84869773 9.01725904 34.53856221 10.02734375 41.16796875 C10.23531608 46.1343479 9.54181452 49.75117204 6.6875 53.9375 C1.99604359 58.66741097 -1.89804231 60.111268 -8.5 60.3125 C-14.74999313 60.24993055 -18.7474797 59.26565603 -23.3125 54.9375 C-28.3125 49.22671569 -28.3125 49.22671569 -28.3125 45.9375 C-26.703125 44.61328125 -26.703125 44.61328125 -24.5625 43.25 C-23.51835938 42.56357422 -23.51835938 42.56357422 -22.453125 41.86328125 C-20.3125 40.9375 -20.3125 40.9375 -18.1640625 41.13671875 C-16.3125 41.9375 -16.3125 41.9375 -14.4375 44.4375 C-12.48968535 47.18415006 -12.48968535 47.18415006 -9.25 47.875 C-6.11916091 48.22191618 -6.11916091 48.22191618 -3.3125 45.9375 C-2.4733291 43.65843418 -2.4733291 43.65843418 -3.3125 40.9375 C-6.46845598 36.93039225 -10.52233963 33.74826402 -14.375 30.4375 C-20.21214302 25.39529864 -24.97090359 21.10497626 -25.625 13.125 C-25.54393347 8.70687395 -24.28312979 6.28897976 -21.3125 2.9375 C-14.81410889 -2.10206861 -7.78238479 -2.49623663 0 0 Z " fill="#59BEBB" transform="translate(1461.3125,304.0625)"/>
<path d="M0 0 C3.50702033 2.52831698 6.05546751 5.53079128 8.6875 8.9375 C7.62033928 10.13955464 6.53311663 11.32382333 5.4375 12.5 C4.83421875 13.16128906 4.2309375 13.82257813 3.609375 14.50390625 C1.6875 15.9375 1.6875 15.9375 -0.546875 15.65234375 C-1.12953125 15.41644531 -1.7121875 15.18054688 -2.3125 14.9375 C-2.3125 14.2775 -2.3125 13.6175 -2.3125 12.9375 C-6.09437881 11.10058743 -8.25818308 10.77912374 -12.3125 11.9375 C-11.83325953 16.33434116 -10.62823601 18.01951585 -7.25 20.8125 C-6.44046875 21.49957031 -5.6309375 22.18664062 -4.796875 22.89453125 C-3.22610952 24.18621418 -1.65343532 25.47558253 -0.078125 26.76171875 C4.80788133 30.84869773 9.01725904 34.53856221 10.02734375 41.16796875 C10.23531608 46.1343479 9.54181452 49.75117204 6.6875 53.9375 C1.99604359 58.66741097 -1.89804231 60.111268 -8.5 60.3125 C-14.74999313 60.24993055 -18.7474797 59.26565603 -23.3125 54.9375 C-28.3125 49.22671569 -28.3125 49.22671569 -28.3125 45.9375 C-26.703125 44.61328125 -26.703125 44.61328125 -24.5625 43.25 C-23.51835938 42.56357422 -23.51835938 42.56357422 -22.453125 41.86328125 C-20.3125 40.9375 -20.3125 40.9375 -18.1640625 41.13671875 C-16.3125 41.9375 -16.3125 41.9375 -14.4375 44.4375 C-12.48968535 47.18415006 -12.48968535 47.18415006 -9.25 47.875 C-6.11916091 48.22191618 -6.11916091 48.22191618 -3.3125 45.9375 C-2.4733291 43.65843418 -2.4733291 43.65843418 -3.3125 40.9375 C-6.46845598 36.93039225 -10.52233963 33.74826402 -14.375 30.4375 C-20.21214302 25.39529864 -24.97090359 21.10497626 -25.625 13.125 C-25.54393347 8.70687395 -24.28312979 6.28897976 -21.3125 2.9375 C-14.81410889 -2.10206861 -7.78238479 -2.49623663 0 0 Z " fill="#59BEBB" transform="translate(1731.3125,206.0625)"/>
<path d="M0 0 C3.50702033 2.52831698 6.05546751 5.53079128 8.6875 8.9375 C7.62033928 10.13955464 6.53311663 11.32382333 5.4375 12.5 C4.83421875 13.16128906 4.2309375 13.82257813 3.609375 14.50390625 C1.6875 15.9375 1.6875 15.9375 -0.546875 15.65234375 C-1.12953125 15.41644531 -1.7121875 15.18054688 -2.3125 14.9375 C-2.3125 14.2775 -2.3125 13.6175 -2.3125 12.9375 C-6.09437881 11.10058743 -8.25818308 10.77912374 -12.3125 11.9375 C-11.83325953 16.33434116 -10.62823601 18.01951585 -7.25 20.8125 C-6.44046875 21.49957031 -5.6309375 22.18664062 -4.796875 22.89453125 C-3.22610952 24.18621418 -1.65343532 25.47558253 -0.078125 26.76171875 C4.80788133 30.84869773 9.01725904 34.53856221 10.02734375 41.16796875 C10.23531608 46.1343479 9.54181452 49.75117204 6.6875 53.9375 C1.99604359 58.66741097 -1.89804231 60.111268 -8.5 60.3125 C-14.74999313 60.24993055 -18.7474797 59.26565603 -23.3125 54.9375 C-28.3125 49.22671569 -28.3125 49.22671569 -28.3125 45.9375 C-26.703125 44.61328125 -26.703125 44.61328125 -24.5625 43.25 C-23.51835938 42.56357422 -23.51835938 42.56357422 -22.453125 41.86328125 C-20.3125 40.9375 -20.3125 40.9375 -18.1640625 41.13671875 C-16.3125 41.9375 -16.3125 41.9375 -14.4375 44.4375 C-12.48968535 47.18415006 -12.48968535 47.18415006 -9.25 47.875 C-6.11916091 48.22191618 -6.11916091 48.22191618 -3.3125 45.9375 C-2.4733291 43.65843418 -2.4733291 43.65843418 -3.3125 40.9375 C-6.46845598 36.93039225 -10.52233963 33.74826402 -14.375 30.4375 C-20.21214302 25.39529864 -24.97090359 21.10497626 -25.625 13.125 C-25.54393347 8.70687395 -24.28312979 6.28897976 -21.3125 2.9375 C-14.81410889 -2.10206861 -7.78238479 -2.49623663 0 0 Z " fill="#59BEBB" transform="translate(1276.3125,206.0625)"/>
<path d="M0 0 C11.22 0 22.44 0 34 0 C34 3.63 34 7.26 34 11 C30.37 11 26.74 11 23 11 C23 26.84 23 42.68 23 59 C19.04 59 15.08 59 11 59 C11 43.16 11 27.32 11 11 C7.37 11 3.74 11 0 11 C0 7.37 0 3.74 0 0 Z " fill="#59BEBB" transform="translate(1781,304)"/>
<path d="M0 0 C11.22 0 22.44 0 34 0 C34 3.63 34 7.26 34 11 C30.37 11 26.74 11 23 11 C23 26.84 23 42.68 23 59 C19.04 59 15.08 59 11 59 C11 43.16 11 27.32 11 11 C7.37 11 3.74 11 0 11 C0 7.37 0 3.74 0 0 Z " fill="#59BEBB" transform="translate(1687,304)"/>
<path d="M0 0 C11.22 0 22.44 0 34 0 C34 3.63 34 7.26 34 11 C30.37 11 26.74 11 23 11 C23 26.84 23 42.68 23 59 C19.04 59 15.08 59 11 59 C11 43.16 11 27.32 11 11 C7.37 11 3.74 11 0 11 C0 7.37 0 3.74 0 0 Z " fill="#59BEBB" transform="translate(1474,304)"/>
<path d="M0 0 C11.22 0 22.44 0 34 0 C34 3.63 34 7.26 34 11 C30.37 11 26.74 11 23 11 C23 26.84 23 42.68 23 59 C19.04 59 15.08 59 11 59 C11 43.16 11 27.32 11 11 C7.37 11 3.74 11 0 11 C0 7.37 0 3.74 0 0 Z " fill="#59BEBB" transform="translate(1744,206)"/>
<path d="M0 0 C3.96 0 7.92 0 12 0 C12 15.84 12 31.68 12 48 C17.61 48 23.22 48 29 48 C29 51.63 29 55.26 29 59 C19.43 59 9.86 59 0 59 C0 39.53 0 20.06 0 0 Z " fill="#59BEBB" transform="translate(1750,304)"/>
<path d="M0 0 C3.96 0 7.92 0 12 0 C12 15.84 12 31.68 12 48 C17.61 48 23.22 48 29 48 C29 51.63 29 55.26 29 59 C19.43 59 9.86 59 0 59 C0 39.53 0 20.06 0 0 Z " fill="#59BEBB" transform="translate(1917,206)"/>
<path d="M0 0 C3.96 0 7.92 0 12 0 C12 19.47 12 38.94 12 59 C8.04 59 4.08 59 0 59 C0 39.53 0 20.06 0 0 Z " fill="#59BEBB" transform="translate(1252,304)"/>
<path d="M0 0 C3.96 0 7.92 0 12 0 C12 19.47 12 38.94 12 59 C8.04 59 4.08 59 0 59 C0 39.53 0 20.06 0 0 Z " fill="#59BEBB" transform="translate(1832,206)"/>
<path d="M0 0 C3.96 0 7.92 0 12 0 C12 19.47 12 38.94 12 59 C8.04 59 4.08 59 0 59 C0 39.53 0 20.06 0 0 Z " fill="#59BEBB" transform="translate(1512,206)"/>
<path d="M0 0 C3.96 0 7.92 0 12 0 C12 19.47 12 38.94 12 59 C8.04 59 4.08 59 0 59 C0 39.53 0 20.06 0 0 Z " fill="#59BEBB" transform="translate(1466,206)"/>
<path d="M0 0 C1.9375 1.0625 1.9375 1.0625 3 3 C3.36528977 6.4093712 3.6140629 8.88023824 1.9375 11.9375 C-1.11976176 13.6140629 -3.5906288 13.36528977 -7 13 C-8.9375 11.9375 -8.9375 11.9375 -10 10 C-10.36528977 6.5906288 -10.6140629 4.11976176 -8.9375 1.0625 C-5.88023824 -0.6140629 -3.4093712 -0.36528977 0 0 Z " fill="#59BEBB" transform="translate(2067,351)"/>
<path d="M0 0 C1.9375 1.0625 1.9375 1.0625 3 3 C3.36528977 6.4093712 3.6140629 8.88023824 1.9375 11.9375 C-1.11976176 13.6140629 -3.5906288 13.36528977 -7 13 C-8.9375 11.9375 -8.9375 11.9375 -10 10 C-10.36528977 6.5906288 -10.6140629 4.11976176 -8.9375 1.0625 C-5.88023824 -0.6140629 -3.4093712 -0.36528977 0 0 Z " fill="#59BEBB" transform="translate(1888,351)"/>
</svg>
