<svg xmlns="http://www.w3.org/2000/svg" width="79.924" height="69.934" viewBox="0 0 79.924 69.934">
  <path id="Icon_awesome-quote-left" data-name="Icon awesome-quote-left" d="M72.431,37.217H59.943V27.226a10,10,0,0,1,9.991-9.991h1.249a3.737,3.737,0,0,0,3.746-3.746V6A3.737,3.737,0,0,0,71.183,2.25H69.934A24.969,24.969,0,0,0,44.957,27.226V64.691a7.5,7.5,0,0,0,7.493,7.493H72.431a7.5,7.5,0,0,0,7.493-7.493V44.71A7.5,7.5,0,0,0,72.431,37.217Zm-44.957,0H14.986V27.226a10,10,0,0,1,9.991-9.991h1.249a3.737,3.737,0,0,0,3.746-3.746V6A3.737,3.737,0,0,0,26.225,2.25H24.976A24.969,24.969,0,0,0,0,27.226V64.691a7.5,7.5,0,0,0,7.493,7.493H27.474a7.5,7.5,0,0,0,7.493-7.493V44.71A7.5,7.5,0,0,0,27.474,37.217Z" transform="translate(0 -2.25)" fill="#fff"/>
</svg>
