<svg xmlns="http://www.w3.org/2000/svg" width="168.124" height="168.091" viewBox="0 0 168.124 168.091">
  <g id="success" transform="translate(0 511.743)">
    <path id="Path_97" data-name="Path 97" d="M87.044-511.466c-4.73.92-9.69,5.518-11.1,10.314-3.055,10.445,5.715,20.693,16.226,18.953a14.708,14.708,0,0,0,10.445-22.073A14.643,14.643,0,0,0,87.044-511.466Z" transform="translate(-50.584 0)" fill="#fff"/>
    <path id="Path_98" data-name="Path 98" d="M32.19-419.487a11.381,11.381,0,0,0-6.7,5.584c-.69,1.511-.69,1.807-.788,27.953-.066,23.617-.033,26.606.46,28.084a10.9,10.9,0,0,0,3.745,5.255c.723.493,6.635,2.628,14.288,5.19L56.3-343.053l4.369,13.106c2.726,8.245,4.7,13.566,5.255,14.387a9.063,9.063,0,0,0,4.8,3.547l1.708.591-9.624.033c-8.967,0-9.69.033-10.905.657a4.4,4.4,0,0,0-1.971,1.971c-.591,1.182-.657,1.905-.657,9.2v7.883l-11.562-.033c-10.051,0-11.4-.066-10.215-.427a10.076,10.076,0,0,0,6.339-5.978c.23-.624,1.839-9.788,3.58-20.365,2.858-17.08,3.153-19.248,2.693-19.478-.3-.131-3.515-1.281-7.193-2.5-5.19-1.741-7.095-2.529-8.7-3.646-1.741-1.215-2.069-1.347-2.234-.854-.1.3-1.774,10.248-3.745,22.073-3.383,20.431-3.547,21.613-3.153,23.387a9.762,9.762,0,0,0,6.438,7.226c1.642.558,1.577.558-7.982.591-8.967,0-9.69.033-10.905.657A5.185,5.185,0,0,0,0-286.753a5.185,5.185,0,0,0,2.628,4.27c1.248.657,1.872.657,26.934.657s25.686,0,26.934-.657a4.4,4.4,0,0,0,1.971-1.971c.591-1.182.657-1.905.657-9.2v-7.883H81.789c22.106,0,22.73-.033,23.978-.657a4.4,4.4,0,0,0,1.971-1.971c.591-1.182.657-1.905.657-9.2v-7.883h22.993c22.434,0,23.058-.033,24.307-.657a4.4,4.4,0,0,0,1.971-1.971c.624-1.248.657-1.905.657-20.4v-19.117l.755.657c2.266,2.1,4.369,2.562,6.471,1.38a4.822,4.822,0,0,0,2.1-6.307c-.755-1.478-10.544-11.332-12.022-12.088a4.515,4.515,0,0,0-4.467,0c-1.478.755-11.266,10.61-12.022,12.088a4.822,4.822,0,0,0,2.1,6.307c2.1,1.182,4.2.723,6.5-1.38l.723-.657V-331.1H125.475c-22.434,0-23.058.033-24.307.657a4.4,4.4,0,0,0-1.971,1.971c-.591,1.182-.657,1.905-.657,9.2v7.883H86.978c-11.562-.033-11.595-.033-9.887-.624a9.815,9.815,0,0,0,6.569-8.507c.164-1.807-.1-2.792-5.288-18.361-3.876-11.661-5.748-16.785-6.405-17.672-1.807-2.431-2.858-2.923-15.5-7.128l-12.12-4.04v-12.613l18.493-.1c18.1-.1,18.493-.1,19.971-.788a11.363,11.363,0,0,0,4.993-5.026,11.056,11.056,0,0,0,0-7.949,11.363,11.363,0,0,0-4.993-5.026c-1.478-.657-1.938-.69-16.982-.788l-15.438-.1-3.712-7.653a90.428,90.428,0,0,0-4.7-8.869,7.956,7.956,0,0,0-6.471-3.022A12.86,12.86,0,0,0,32.19-419.487Z" transform="translate(0 -61.825)" fill="#fff"/>
    <path id="Path_99" data-name="Path 99" d="M8.449-380.5C.993-372.974.5-372.219.5-368.277s.493,4.7,8.047,12.285l6.569,6.6v-18.821c0-10.314-.033-18.788-.1-18.788S12-384.077,8.449-380.5Z" transform="translate(-0.336 -83.769)" fill="#fff"/>
  </g>
</svg>
