<svg xmlns="http://www.w3.org/2000/svg" width="30.226" height="24.549" viewBox="0 0 30.226 24.549">
  <path id="twitter" d="M27.119,54.2c.019.268.019.537.019.806,0,8.189-6.233,17.625-17.625,17.625A17.506,17.506,0,0,1,0,69.85a12.815,12.815,0,0,0,1.5.077A12.406,12.406,0,0,0,9.187,67.28a6.206,6.206,0,0,1-5.792-4.3,7.813,7.813,0,0,0,1.17.1,6.552,6.552,0,0,0,1.63-.211,6.2,6.2,0,0,1-4.967-6.08v-.077a6.239,6.239,0,0,0,2.8.786A6.2,6.2,0,0,1,2.11,49.214,17.608,17.608,0,0,0,14.883,55.7a6.993,6.993,0,0,1-.153-1.419A6.2,6.2,0,0,1,25.45,50.038a12.2,12.2,0,0,0,3.932-1.5,6.178,6.178,0,0,1-2.723,3.414A12.419,12.419,0,0,0,30.226,51,13.316,13.316,0,0,1,27.119,54.2Z" transform="translate(0 -48.082)" fill="#fff"/>
</svg>
